<?xml version="1.0" encoding="UTF-8" standalone="yes"?><svg xmlns="http://www.w3.org/2000/svg" xmlns:xlink="http://www.w3.org/1999/xlink" height="251.6491pt" style="width:341px;height:251px;background:#FFFFE0;" version="1.1" viewBox="0 0 341 251" width="341.2269pt"><defs><filter height="300%" id="f1" width="300%" x="-1" y="-1"><feGaussianBlur result="blurOut" stdDeviation="0.9234828496042217"/><feColorMatrix in="blurOut" result="blurOut2" type="matrix" values="0 0 0 0 0 0 0 0 0 0 0 0 0 0 0 0 0 0 .4 0"/><feOffset dx="1.8469656992084433" dy="1.8469656992084433" in="blurOut2" result="blurOut3"/><feBlend in="SourceGraphic" in2="blurOut3" mode="normal"/></filter></defs><g><text fill="#000000" font-family="sans-serif" font-size="8.3113" lengthAdjust="spacingAndGlyphs" textLength="94.657" x="127.6715" y="8.6279">ADSREnvelopeGenerator</text><rect fill="#CD853F" filter="url(#f1)" height="41.095" rx="5.7718" ry="5.7718" style="stroke: #808080; stroke-width: 0.6926121372031663;" width="277.5066" x="31.6293" y="109.7285"/><rect fill="#FFFFE0" height="25.5761" rx="5.7718" ry="5.7718" style="stroke: #FFFFE0; stroke-width: 0.46174142480211083;" width="274.7361" x="33.0145" y="123.8621"/><line style="stroke: #808080; stroke-width: 0.6926121372031663;" x1="31.6293" x2="309.1359" y1="122.4769" y2="122.4769"/><text fill="#000000" font-family="sans-serif" font-size="6.4644" lengthAdjust="spacingAndGlyphs" textLength="16.1609" x="162.3021" y="118.2861">Cycle</text><rect fill="#CD853F" filter="url(#f1)" height="24.3352" rx="5.7718" ry="5.7718" style="stroke: #808080; stroke-width: 0.6926121372031663;" width="60.0264" x="51.4842" y="122.6573"/><line style="stroke: #808080; stroke-width: 0.6926121372031663;" x1="51.4842" x2="111.5106" y1="135.4057" y2="135.4057"/><text fill="#000000" font-family="sans-serif" font-size="6.4644" lengthAdjust="spacingAndGlyphs" textLength="50.7916" x="56.1016" y="131.6766">STAGE_ATTACK</text><text fill="#000000" font-family="sans-serif" font-size="5.5409" lengthAdjust="spacingAndGlyphs" textLength="26.3193" x="53.7929" y="143.4663">level: [0..1]</text><rect fill="#CD853F" filter="url(#f1)" height="24.3352" rx="5.7718" ry="5.7718" style="stroke: #808080; stroke-width: 0.6926121372031663;" width="56.3325" x="149.8351" y="122.6573"/><line style="stroke: #808080; stroke-width: 0.6926121372031663;" x1="149.8351" x2="206.1675" y1="135.4057" y2="135.4057"/><text fill="#000000" font-family="sans-serif" font-size="6.4644" lengthAdjust="spacingAndGlyphs" textLength="47.0976" x="154.4525" y="131.6766">STAGE_DECAY</text><text fill="#000000" font-family="sans-serif" font-size="5.5409" lengthAdjust="spacingAndGlyphs" textLength="42.0185" x="152.1438" y="143.4663">level: [1..sustain]</text><rect fill="#CD853F" filter="url(#f1)" height="24.3352" rx="5.7718" ry="5.7718" style="stroke: #808080; stroke-width: 0.6926121372031663;" width="60.9499" x="244.4921" y="122.6573"/><line style="stroke: #808080; stroke-width: 0.6926121372031663;" x1="244.4921" x2="305.442" y1="135.4057" y2="135.4057"/><text fill="#000000" font-family="sans-serif" font-size="6.4644" lengthAdjust="spacingAndGlyphs" textLength="51.715" x="249.1095" y="131.6766">STAGE_SUSTAIN</text><text fill="#000000" font-family="sans-serif" font-size="5.5409" lengthAdjust="spacingAndGlyphs" textLength="36.0158" x="246.8008" y="143.4663">level: [sustain]</text><rect fill="#CD853F" filter="url(#f1)" height="24.3352" rx="5.7718" ry="5.7718" style="stroke: #808080; stroke-width: 0.6926121372031663;" width="48.0211" x="198.7797" y="59.3987"/><line style="stroke: #808080; stroke-width: 0.6926121372031663;" x1="198.7797" x2="246.8008" y1="72.1471" y2="72.1471"/><text fill="#000000" font-family="sans-serif" font-size="6.4644" lengthAdjust="spacingAndGlyphs" textLength="38.7863" x="203.3971" y="68.418">STAGE_OFF</text><text fill="#000000" font-family="sans-serif" font-size="5.5409" lengthAdjust="spacingAndGlyphs" textLength="20.3166" x="201.0884" y="80.2077">level: [0]</text><ellipse cx="222.7902" cy="18.7655" fill="#000000" filter="url(#f1)" rx="4.6174" ry="4.6174" style="stroke: none; stroke-width: 0.46174142480211083;"/><polygon fill="#808000" filter="url(#f1)" points="2.7704,65.6322,2.7704,77.7998,67.876,77.7998,67.876,70.2496,63.2586,65.6322,2.7704,65.6322" style="stroke: #808080; stroke-width: 0.46174142480211083;"/><polygon fill="#808000" points="2.7704,65.6322,2.7704,77.7998,33.4763,77.7998,35.3232,109.9298,37.1702,77.7998,67.876,77.7998,67.876,70.2496,63.2586,65.6322,2.7704,65.6322" style="stroke: #808080; stroke-width: 0.46174142480211083;"/><line style="stroke: #808080; stroke-width: 0.46174142480211083;" x1="63.2586" x2="63.2586" y1="65.6322" y2="70.2496"/><line style="stroke: #808080; stroke-width: 0.46174142480211083;" x1="67.876" x2="63.2586" y1="70.2496" y2="70.2496"/><text fill="#000000" font-family="sans-serif" font-size="6.0026" lengthAdjust="spacingAndGlyphs" textLength="55.409" x="5.5409" y="74.1722">Signal: cycleStarting</text><rect fill="#CD853F" filter="url(#f1)" height="24.3352" rx="5.7718" ry="5.7718" style="stroke: #808080; stroke-width: 0.6926121372031663;" width="63.7203" x="222.3285" y="183.1454"/><line style="stroke: #808080; stroke-width: 0.6926121372031663;" x1="222.3285" x2="286.0488" y1="195.8938" y2="195.8938"/><text fill="#000000" font-family="sans-serif" font-size="6.4644" lengthAdjust="spacingAndGlyphs" textLength="54.4855" x="226.9459" y="192.1647">STAGE_RELEASE</text><text fill="#000000" font-family="sans-serif" font-size="5.5409" lengthAdjust="spacingAndGlyphs" textLength="39.248" x="224.6372" y="203.9544">level [current..0]</text><polygon fill="#808000" filter="url(#f1)" points="220.7124,235.7839,220.7124,247.9515,287.6649,247.9515,287.6649,240.4013,283.0475,235.7839,220.7124,235.7839" style="stroke: #808080; stroke-width: 0.46174142480211083;"/><polygon fill="#808000" points="220.7124,235.7839,220.7124,247.9515,287.6649,247.9515,287.6649,240.4013,283.0475,235.7839,256.0356,235.7839,254.1887,207.6743,252.3417,235.7839,220.7124,235.7839" style="stroke: #808080; stroke-width: 0.46174142480211083;"/><line style="stroke: #808080; stroke-width: 0.46174142480211083;" x1="283.0475" x2="283.0475" y1="235.7839" y2="240.4013"/><line style="stroke: #808080; stroke-width: 0.46174142480211083;" x1="287.6649" x2="283.0475" y1="240.4013" y2="240.4013"/><text fill="#000000" font-family="sans-serif" font-size="6.0026" lengthAdjust="spacingAndGlyphs" textLength="57.2559" x="223.4828" y="244.3239">Signal: cycleFinished</text><path d="M222.7902,23.478 C222.7902,30.7172 222.7902,45.7469 222.7902,57.011 " fill="none" style="stroke: #A80036; stroke-width: 0.46174142480211083;"/><polygon fill="#A80036" points="222.7902,59.3535,224.6372,55.1978,222.7902,57.0447,220.9433,55.1978,222.7902,59.3535" style="stroke: #A80036; stroke-width: 0.46174142480211083;"/><text fill="#000000" font-family="sans-serif" font-size="6.0026" lengthAdjust="spacingAndGlyphs" textLength="10.1583" x="223.252" y="43.9281">ctor</text><path d="M198.6615,82.7416 C174.2446,93.514 136.4815,110.1741 110.4615,121.6535 " fill="none" style="stroke: #A80036; stroke-width: 0.46174142480211083;"/><polygon fill="#A80036" points="108.2954,122.6088,112.8431,122.622,110.4079,121.6773,111.3526,119.2421,108.2954,122.6088" style="stroke: #A80036; stroke-width: 0.46174142480211083;"/><text fill="#000000" font-family="sans-serif" font-size="6.0026" lengthAdjust="spacingAndGlyphs" textLength="20.3166" x="160.9169" y="104.4162">NoteOn</text><path d="M111.6348,134.8934 C122.9936,134.8934 135.9191,134.8934 147.3265,134.8934 " fill="none" style="stroke: #A80036; stroke-width: 0.46174142480211083;"/><polygon fill="#A80036" points="149.7367,134.8934,145.5811,133.0465,147.428,134.8934,145.5811,136.7404,149.7367,134.8934" style="stroke: #A80036; stroke-width: 0.46174142480211083;"/><text fill="#000000" font-family="sans-serif" font-size="6.0026" lengthAdjust="spacingAndGlyphs" textLength="21.2401" x="120.0528" y="131.8899">Timeout</text><path d="M206.1782,134.8934 C217.3962,134.8934 230.385,134.8934 242.0342,134.8934 " fill="none" style="stroke: #A80036; stroke-width: 0.46174142480211083;"/><polygon fill="#A80036" points="244.3453,134.8934,240.1896,133.0465,242.0365,134.8934,240.1896,136.7404,244.3453,134.8934" style="stroke: #A80036; stroke-width: 0.46174142480211083;"/><text fill="#000000" font-family="sans-serif" font-size="6.0026" lengthAdjust="spacingAndGlyphs" textLength="21.2401" x="214.7098" y="131.8899">Timeout</text><path d="M43.1728,150.8235 C70.5107,171.7616 167.5752,185.3825 220.0018,191.3875 " fill="none" style="stroke: #A80036; stroke-width: 0.46174142480211083;"/><polygon fill="#A80036" points="222.31,191.6502,218.39,189.345,220.0161,191.389,217.9721,193.0152,222.31,191.6502" style="stroke: #A80036; stroke-width: 0.46174142480211083;"/><text fill="#000000" font-family="sans-serif" font-size="6.0026" lengthAdjust="spacingAndGlyphs" textLength="19.8549" x="85.1913" y="167.6748">NoteOff</text><path d="M249.2633,75.266 C270.4235,79.3473 298.7869,88.6389 312.8298,109.7285 C322.953,124.9309 320.9879,134.482 312.8298,150.8235 C305.7749,164.9556 291.7961,175.7428 279.2561,183.1103 " fill="none" style="stroke: #A80036; stroke-width: 0.46174142480211083;"/><polygon fill="#A80036" points="246.9804,74.8403,250.7268,77.4181,249.25,75.2637,251.4043,73.7868,246.9804,74.8403" style="stroke: #A80036; stroke-width: 0.46174142480211083;"/><text fill="#000000" font-family="sans-serif" font-size="6.0026" lengthAdjust="spacingAndGlyphs" textLength="21.2401" x="319.7559" y="137.4308">Timeout</text></g></svg>